# xmcd
#
# Track frame offsets:
#	187
#	34927
#	46952
#	60812
#	91557
#	104690
#	118270
#	144100
#	161302
#	180090
#	203745
#
# Disc length: 3049 seconds
#
# Revision: 1
# Processed by: cddbd v1.5.1PL0 Copyright (c) Steve Scherf et al.
# Submitted via: audiograbber 1.82.02
#
DISCID=7e0be70b
DTITLE=Various Artist - V.S.O.P. Album (Mercury 40th Anniversary V.S.O.P. Album) Disc 
DTITLE=2
DYEAR=1984
DGENRE=Jazz
TTITLE0=Paul Quinichette - Plush Life
TTITLE1=Junior Mance - Hot Springs
TTITLE2=Junior Mance - 111 East Ontario
TTITLE3=Paul Bley - Willow Weep For Me
TTITLE4=Helen Merrill - Glad To Be Unhappy
TTITLE5=Helen Merrill - How's The World Treating You
TTITLE6=Clifford Brown All-Stars - Blues (Coronado)
TTITLE7=John Williams - Manteca
TTITLE8=Herb Geller - Cherokee
TTITLE9=Herb Geller - Blues In The Night
TTITLE10=Herb Geller - Suppertime
EXTD=YEAR: 1984
EXTT0=
EXTT1=
EXTT2=
EXTT3=
EXTT4=
EXTT5=
EXTT6=
EXTT7=
EXTT8=
EXTT9=
EXTT10=
PLAYORDER=
